<?xml version="1.0" encoding="UTF-8"?>
<!DOCTYPE svg PUBLIC "-//W3C//DTD SVG 1.1//EN" "http://www.w3.org/Graphics/SVG/1.1/DTD/svg11.dtd">
<!-- Creator: CorelDRAW 2019 (64-Bit) -->
<svg xmlns="http://www.w3.org/2000/svg" xml:space="preserve" width="742px" height="832px" version="1.1" style="shape-rendering:geometricPrecision; text-rendering:geometricPrecision; image-rendering:optimizeQuality; fill-rule:evenodd; clip-rule:evenodd"
viewBox="0 0 41.952 47.072"
 xmlns:xlink="http://www.w3.org/1999/xlink"
 xmlns:xodm="http://www.corel.com/coreldraw/odm/2003">
 <defs>
  <style type="text/css">
   <![CDATA[
    .fil6 {fill:#323232}
    .fil5 {fill:#464646}
    .fil2 {fill:#5A5A5A}
    .fil4 {fill:#6E6E6E}
    .fil3 {fill:#828282}
    .fil1 {fill:#969696}
    .fil0 {fill:#AAAAAA}
   ]]>
  </style>
 </defs>
 <g id="Слой_x0020_1">
  <metadata id="CorelCorpID_0Corel-Layer"/>
  <rect class="fil0" transform="matrix(0.510695 0.258016 -1.00777 0.509153 21.2185 -0.331274)" width="41.863" height="21.214" rx="1.245" ry="1.245"/>
  <path class="fil1" d="M0.679 11.35l8.462 4.236c0.278,0.14 0.396,0.312 0.396,0.623l0 1.664c0,0.311 -0.213,0.453 -0.487,0.601l-8.371 4.523c-0.274,0.148 -0.566,-0.254 -0.566,-0.565l0 -10.516c0,-0.311 0.288,-0.705 0.566,-0.566z"/>
  <path class="fil2" d="M41.387 24.475l-8.463 4.324c-0.277,0.142 -0.396,0.273 -0.396,0.584l0 1.615c0,0.311 0.214,0.453 0.487,0.601l8.372 4.523c0.273,0.148 0.565,-0.255 0.565,-0.566l0 -10.515c0,-0.312 -0.288,-0.708 -0.565,-0.566z"/>
  <path class="fil3" d="M9.889 18.871l10.799 5.686c0.272,0.143 0.414,0.577 0.413,0.888l-0.017 8.386c-0.001,0.311 -0.34,0.423 -0.614,0.283l-19.754 -10.057c-0.274,-0.14 -0.21,-0.438 0.059,-0.586l8.277 -4.544c0.27,-0.148 0.565,-0.2 0.837,-0.056z"/>
  <path class="fil4" d="M32.453 18.871l-10.607 5.686c-0.267,0.143 -0.406,0.577 -0.405,0.888l0.016 8.386c0.001,0.311 0.334,0.423 0.604,0.283l19.402 -10.057c0.269,-0.14 0.206,-0.438 -0.059,-0.586l-8.129 -4.544c-0.265,-0.148 -0.554,-0.2 -0.822,-0.056z"/>
  <path class="fil5" d="M32.319 31.769l-10.466 5.686c-0.264,0.143 -0.401,0.577 -0.4,0.888l0.017 8.386c0,0.311 0.329,0.423 0.595,0.283l19.144 -10.057c0.266,-0.14 0.204,-0.437 -0.058,-0.586l-8.021 -4.543c-0.261,-0.149 -0.547,-0.2 -0.811,-0.057z"/>
  <path class="fil6" d="M9.59 31.712l11.075 5.686c0.28,0.144 0.425,0.577 0.424,0.888l-0.018 8.387c0,0.311 -0.348,0.422 -0.63,0.283l-20.26 -10.058c-0.281,-0.139 -0.215,-0.437 0.062,-0.585l8.488 -4.544c0.277,-0.148 0.579,-0.2 0.859,-0.057z"/>
 </g>
</svg>
